<svg width="142" height="48" viewBox="0 0 142 48" fill="none" xmlns="http://www.w3.org/2000/svg">
<path d="M59.944 39V10.2H65.884C67.9 10.2 69.352 10.608 70.24 11.424C71.152 12.24 71.644 13.584 71.716 15.456C71.764 16.92 71.788 18.24 71.788 19.416C71.788 20.568 71.764 21.768 71.716 23.016C71.644 24.888 71.152 26.232 70.24 27.048C69.352 27.864 67.888 28.272 65.848 28.272H63.436V39H59.944ZM63.436 25.14H65.848C66.688 25.14 67.288 24.996 67.648 24.708C68.008 24.396 68.2 23.88 68.224 23.16C68.296 21.912 68.332 20.664 68.332 19.416C68.332 18.144 68.296 16.776 68.224 15.312C68.2 14.592 68.008 14.088 67.648 13.8C67.288 13.488 66.7 13.332 65.884 13.332H63.436V25.14ZM82.7753 31.224H86.2673C86.2913 31.584 86.3033 32.076 86.3033 32.7C86.3273 33.3 86.3273 33.792 86.3033 34.176C86.2073 36 85.7273 37.308 84.8633 38.1C83.9993 38.892 82.5593 39.288 80.5433 39.288C78.4313 39.288 76.9193 38.892 76.0073 38.1C75.1193 37.284 74.6393 35.976 74.5673 34.176C74.5193 33.384 74.4833 32.472 74.4593 31.44C74.4593 30.408 74.4593 29.34 74.4593 28.236C74.4593 27.132 74.4593 26.064 74.4593 25.032C74.4833 24 74.5193 23.088 74.5673 22.296C74.6633 20.424 75.1673 19.092 76.0793 18.3C77.0153 17.508 78.4913 17.112 80.5073 17.112C82.4993 17.112 83.9393 17.52 84.8273 18.336C85.7393 19.128 86.2313 20.4 86.3033 22.152C86.3273 22.44 86.3393 22.956 86.3393 23.7C86.3393 24.444 86.3393 25.284 86.3393 26.22C86.3393 27.132 86.3153 28.008 86.2673 28.848H78.0233C78.0233 29.784 78.0233 30.72 78.0233 31.656C78.0473 32.592 78.0713 33.552 78.0953 34.536C78.1193 35.304 78.3113 35.844 78.6713 36.156C79.0553 36.444 79.6673 36.588 80.5073 36.588C81.3233 36.588 81.8993 36.444 82.2353 36.156C82.5713 35.844 82.7633 35.304 82.8113 34.536C82.8353 34.176 82.8473 33.708 82.8473 33.132C82.8473 32.556 82.8233 31.92 82.7753 31.224ZM80.5073 19.812C79.6193 19.812 78.9953 19.98 78.6353 20.316C78.2993 20.628 78.1193 21.12 78.0953 21.792C78.0713 22.536 78.0473 23.28 78.0233 24.024C78.0233 24.768 78.0233 25.524 78.0233 26.292H82.8113C82.8353 25.356 82.8473 24.456 82.8473 23.592C82.8473 22.704 82.8353 22.104 82.8113 21.792C82.7633 21.072 82.5593 20.568 82.1993 20.28C81.8393 19.968 81.2753 19.812 80.5073 19.812ZM95.5216 39.288C93.3616 39.288 91.8376 38.856 90.9496 37.992C90.0616 37.128 89.5696 35.688 89.4736 33.672C89.4256 32.808 89.3896 31.716 89.3656 30.396C89.3656 29.076 89.3656 27.732 89.3656 26.364C89.3896 24.972 89.4256 23.76 89.4736 22.728C89.5936 20.688 90.0976 19.248 90.9856 18.408C91.8736 17.544 93.3856 17.112 95.5216 17.112C97.7056 17.112 99.2296 17.556 100.094 18.444C100.958 19.308 101.438 20.736 101.534 22.728C101.582 23.688 101.606 24.828 101.606 26.148C101.63 27.444 101.63 28.764 101.606 30.108C101.606 31.428 101.582 32.616 101.534 33.672C101.438 35.688 100.946 37.128 100.058 37.992C99.1936 38.856 97.6816 39.288 95.5216 39.288ZM95.5216 36.624C96.4336 36.624 97.0696 36.456 97.4296 36.12C97.8136 35.76 98.0176 35.22 98.0416 34.5C98.1136 32.34 98.1496 30.252 98.1496 28.236C98.1496 26.196 98.1136 24.084 98.0416 21.9C98.0176 21.156 97.8136 20.616 97.4296 20.28C97.0456 19.944 96.4096 19.776 95.5216 19.776C94.6336 19.776 93.9856 19.956 93.5776 20.316C93.1936 20.676 92.9896 21.216 92.9656 21.936C92.8936 23.76 92.8576 25.764 92.8576 27.948C92.8576 30.132 92.9056 32.304 93.0016 34.464C93.0256 35.208 93.2296 35.76 93.6136 36.12C93.9976 36.456 94.6336 36.624 95.5216 36.624ZM104.87 39V17.4H108.362V19.488H109.082C109.538 18.696 110.054 18.108 110.63 17.724C111.206 17.316 111.974 17.112 112.934 17.112C114.326 17.112 115.37 17.508 116.066 18.3C116.786 19.068 117.146 20.316 117.146 22.044V39H113.654V21.756C113.63 20.412 112.934 19.74 111.566 19.74C110.894 19.74 110.246 19.92 109.622 20.28C109.022 20.616 108.602 21.084 108.362 21.684V39H104.87ZM120.436 13.368V10.2H124.612V13.368H120.436ZM120.796 39V17.4H124.288V39H120.796ZM127.935 34.176C127.887 33.384 127.851 32.472 127.827 31.44C127.827 30.408 127.827 29.34 127.827 28.236C127.827 27.132 127.827 26.064 127.827 25.032C127.851 24 127.887 23.088 127.935 22.296C128.031 20.448 128.535 19.128 129.447 18.336C130.359 17.52 131.823 17.112 133.839 17.112C135.855 17.112 137.319 17.508 138.231 18.3C139.143 19.068 139.623 20.352 139.671 22.152C139.671 22.632 139.671 23.16 139.671 23.736C139.671 24.288 139.659 24.744 139.635 25.104H136.143C136.191 24.6 136.203 24.036 136.179 23.412C136.179 22.788 136.179 22.248 136.179 21.792C136.155 21.072 135.963 20.556 135.603 20.244C135.267 19.932 134.679 19.776 133.839 19.776C132.975 19.776 132.363 19.932 132.003 20.244C131.667 20.556 131.487 21.072 131.463 21.792C131.391 24.024 131.354 26.148 131.354 28.164C131.354 30.18 131.391 32.304 131.463 34.536C131.487 35.304 131.679 35.844 132.039 36.156C132.423 36.468 133.035 36.624 133.875 36.624C134.715 36.624 135.303 36.468 135.639 36.156C135.975 35.82 136.155 35.28 136.179 34.536C136.179 34.056 136.179 33.564 136.179 33.06C136.203 32.556 136.191 31.944 136.143 31.224H139.635C139.659 31.584 139.671 32.064 139.671 32.664C139.695 33.264 139.695 33.768 139.671 34.176C139.575 36 139.083 37.308 138.195 38.1C137.307 38.892 135.867 39.288 133.875 39.288C131.787 39.288 130.287 38.892 129.375 38.1C128.487 37.284 128.007 35.976 127.935 34.176Z" fill="white"/>
<g >
<path d="M46.5167 9.22042C45.6452 7.99246 44.1799 7.31121 42.3427 7.23323C42.5972 3.77216 41.4403 1.08231 39.2663 0.252818C37.5157 -0.415575 35.4231 0.259673 33.5404 2.04634C32.687 1.28797 31.7058 0.854371 30.6552 0.854371C27.2918 0.854371 24.6568 5.18264 24.6568 10.7089C24.6568 14.8109 26.1393 18.3234 28.3347 19.8024C26.4538 21.7254 26.015 26.0502 25.9268 31.8326C24.9088 30.2525 23.5703 29.0614 21.8179 28.5592C23.0098 26.5326 23.4469 23.4752 22.8599 20.2095C21.8813 14.7698 18.523 10.9831 15.2128 11.5709C14.1776 11.7569 13.289 12.3576 12.5829 13.2556C10.4149 11.8306 8.23494 11.5349 6.62994 12.5033C4.6419 13.7021 3.99065 16.5496 4.84584 19.9027C3.09946 20.2952 1.74125 21.2086 1.08057 22.6123C-0.453308 25.8737 2.43192 30.351 7.64881 32.8061C9.7114 33.777 11.87 34.2911 13.8323 34.2911C14.1682 34.2911 14.4973 34.2757 14.8195 34.2457C17.1923 34.0221 18.9215 33.0006 19.6902 31.3691C19.8255 31.0811 19.9147 30.7812 19.9824 30.477C20.1932 30.3536 20.3945 30.2131 20.5865 30.0528C26.8968 30.8832 27.4032 43.2596 27.4032 47.1448C27.4032 47.6178 27.7863 48.0017 28.2601 48.0017C28.734 48.0017 29.1171 47.6178 29.1171 47.1448C29.1171 44.2665 28.8831 39.4506 27.566 35.4068C27.5926 35.3237 27.6183 35.2397 27.6183 35.148C27.6183 29.8686 27.6252 22.8231 29.6355 20.9396C29.6758 21.003 29.7075 21.0707 29.7512 21.1324C30.6784 22.4374 32.2679 23.135 34.274 23.135C34.5276 23.135 34.7873 23.1238 35.0529 23.1016C37.2646 22.9156 39.6794 21.9619 41.8551 20.416C44.0308 18.8701 45.7275 16.9026 46.6307 14.876C47.6015 12.6986 47.5613 10.6909 46.5167 9.22042ZM15.5161 13.2573C17.8118 12.846 20.3911 16.1691 21.1735 20.5111C21.7433 23.6783 21.2103 26.734 19.9498 28.2765C19.9464 28.2627 19.9395 28.2482 19.9361 28.2345C19.7827 27.6055 19.5179 26.9697 19.1546 26.3415C19.1357 26.3081 19.1169 26.2756 19.0972 26.243C18.7236 25.6149 18.2514 24.9979 17.6893 24.4049C17.6644 24.3792 17.6387 24.3535 17.6139 24.3278C17.3422 24.0459 17.0526 23.7699 16.7407 23.5017C16.7252 23.4889 16.7115 23.4752 16.6961 23.4623C16.3713 23.1847 16.0268 22.9165 15.6627 22.6577C15.6224 22.6285 15.5795 22.602 15.5384 22.5737C15.2908 22.4015 15.0354 22.2326 14.7706 22.0707C14.7698 22.0698 14.7689 22.069 14.7672 22.0681C14.7663 22.0681 14.7655 22.0681 14.7646 22.0664C14.7046 22.0296 14.6404 21.9944 14.5787 21.9584C14.4878 21.9044 14.3979 21.8505 14.3062 21.7973C14.1939 21.7331 14.0834 21.6688 13.9677 21.6062C13.9651 21.6045 13.9634 21.602 13.96 21.6011C13.6866 21.4537 13.4064 21.3106 13.1202 21.1752C13.1202 21.1752 13.1202 21.1752 13.1193 21.1752C12.9454 21.0938 12.7706 21.0158 12.5958 20.9413C12.5855 20.8419 12.5726 20.7425 12.5649 20.6431C12.5581 20.5557 12.5504 20.4683 12.5444 20.3817C12.5281 20.1324 12.5186 19.8847 12.5161 19.6396C12.5161 19.6096 12.5135 19.5796 12.5135 19.5496C12.5126 19.2643 12.5212 18.9832 12.5384 18.7064C12.5409 18.6619 12.5461 18.619 12.5486 18.5753C12.5649 18.3448 12.5881 18.1169 12.6163 17.8949C12.6232 17.8393 12.6309 17.7844 12.6386 17.7296C12.6737 17.4845 12.7157 17.2428 12.7663 17.0106C12.768 17.0012 12.7697 16.9918 12.7714 16.9823C12.9454 16.1905 13.205 15.4776 13.5444 14.8846C13.5504 14.8743 13.5504 14.8623 13.5564 14.8521C14.0645 13.9763 14.7321 13.3979 15.5161 13.2573ZM7.51513 13.9703C8.53571 13.3559 10.1039 13.6481 11.7097 14.7227C11.7097 14.7235 11.7097 14.7235 11.7097 14.7235C11.5418 15.0988 11.3969 15.5016 11.2744 15.9258C11.2693 15.9438 11.2641 15.9618 11.259 15.9806C11.139 16.4022 11.0396 16.8435 10.9668 17.3071V17.308C10.8254 18.1983 10.7757 19.1598 10.822 20.1666C10.8237 20.2103 10.8202 20.2515 10.822 20.2952C10.8125 20.2926 10.8022 20.29 10.7928 20.2875C9.30522 19.8419 7.85875 19.6405 6.54682 19.6868C5.81416 17.0269 6.1792 14.7749 7.51513 13.9703ZM14.6592 32.5379C12.7534 32.717 10.5203 32.2611 8.3789 31.2534C4.1766 29.2756 1.54416 25.6517 2.63244 23.3406C3.14659 22.2455 4.42424 21.6122 6.0678 21.4529C6.43799 21.416 6.8236 21.4049 7.22121 21.4169C7.28376 21.4186 7.34632 21.4229 7.40973 21.4254C7.79363 21.4443 8.18695 21.482 8.58713 21.5437C8.65397 21.554 8.72252 21.5685 8.78936 21.5797C9.20411 21.6508 9.62228 21.7391 10.0447 21.8556C10.0696 21.8625 10.0953 21.8719 10.1201 21.8787C10.5555 22.0013 10.9925 22.147 11.4261 22.3158C11.4552 22.3269 11.4835 22.3363 11.5126 22.3475C11.8057 22.4632 12.0988 22.5874 12.3918 22.7245C12.6403 22.8419 12.8828 22.9662 13.1193 23.0938C13.2127 23.1444 13.3036 23.1984 13.3953 23.2507C13.5264 23.3252 13.6566 23.3989 13.7843 23.476C13.9034 23.5489 14.0191 23.6243 14.1348 23.6997C14.229 23.7605 14.3224 23.8214 14.4141 23.8839C14.5427 23.9722 14.6695 24.0622 14.7929 24.1538C14.8623 24.2053 14.9309 24.2567 14.9986 24.3081C15.1314 24.4101 15.2625 24.5129 15.3893 24.6183C15.439 24.6594 15.487 24.7014 15.5358 24.7425C15.6721 24.8582 15.8058 24.9756 15.9334 25.0947C15.9609 25.1204 15.9866 25.1462 16.014 25.1719C16.3842 25.5232 16.715 25.8857 17.0072 26.2533C17.0928 26.3613 17.1794 26.4692 17.2574 26.5781C17.3439 26.698 17.4253 26.818 17.5033 26.9388C17.5205 26.9654 17.5402 26.9919 17.5564 27.0185C17.6276 27.1325 17.6901 27.2464 17.7535 27.3613C17.7852 27.4195 17.8195 27.4787 17.8495 27.5369C17.9018 27.6389 17.9472 27.74 17.9918 27.842C18.0226 27.9123 18.0534 27.9817 18.0809 28.0511C18.1177 28.1462 18.1503 28.2405 18.1811 28.3347C18.2051 28.4101 18.2274 28.4847 18.2471 28.5584C18.2711 28.6475 18.2925 28.7366 18.3097 28.8249C18.3251 28.9029 18.3362 28.98 18.3465 29.0562C18.3577 29.1394 18.3679 29.2233 18.3731 29.3056C18.3782 29.3879 18.3765 29.4676 18.3748 29.5481C18.3739 29.6218 18.3739 29.6964 18.3679 29.7692C18.3397 30.0734 18.2668 30.3656 18.1383 30.639C17.6396 31.699 16.4039 32.3742 14.6592 32.5379ZM38.6554 1.85439C40.1147 2.41224 40.8731 4.56995 40.6203 7.32321C40.6048 7.32578 40.5886 7.33007 40.5723 7.33264C39.5877 7.47745 38.5748 7.76709 37.5654 8.18612C37.5482 8.19298 37.5311 8.20069 37.514 8.2084C37.2115 8.33523 36.9098 8.47404 36.6099 8.624C36.5799 8.63857 36.5499 8.64971 36.5208 8.66514C36.5156 8.62572 36.5054 8.58973 36.5002 8.55031C36.2989 7.025 35.891 5.64794 35.3254 4.49197C35.3177 4.47654 35.3108 4.46112 35.3031 4.44655C35.106 4.0498 34.8927 3.67876 34.6604 3.33856L34.6596 3.33771C36.0623 1.97436 37.5225 1.4225 38.6554 1.85439ZM26.3707 10.7089C26.3707 6.29663 28.333 2.5682 30.6552 2.5682C31.4513 2.5682 32.2114 3.01893 32.8643 3.79101C32.8712 3.80044 32.8738 3.81158 32.8815 3.82101C33.3202 4.34287 33.7007 4.99755 34.0109 5.74392C34.0177 5.75934 34.0229 5.77562 34.0297 5.79105C34.1171 6.00442 34.1977 6.22636 34.274 6.45344C34.2928 6.51086 34.3117 6.56827 34.3297 6.62654C34.3956 6.83391 34.4556 7.04728 34.5113 7.26408C34.5242 7.31293 34.5379 7.36006 34.5499 7.40976C34.6142 7.67626 34.6724 7.9479 34.7213 8.22554C34.7281 8.26239 34.7324 8.30181 34.7384 8.33865C34.7778 8.57173 34.8104 8.8091 34.8378 9.04818C34.8481 9.13901 34.8567 9.2307 34.8652 9.32325C34.8747 9.41922 34.8789 9.51691 34.8867 9.61374C34.7281 9.71743 34.5705 9.8254 34.4128 9.9368C34.2808 10.0302 34.1566 10.1305 34.0289 10.2264C33.9063 10.319 33.7795 10.4098 33.6604 10.5041V10.5049C33.5662 10.5803 33.4779 10.6583 33.3862 10.7346C33.2928 10.8126 33.2011 10.8905 33.1103 10.9702C32.8352 11.2102 32.5687 11.4552 32.3159 11.708C32.2585 11.7654 32.1994 11.822 32.1428 11.8803C31.8883 12.1425 31.6501 12.4116 31.4213 12.6841C31.3253 12.798 31.2345 12.9129 31.1437 13.0285C31.016 13.1914 30.8943 13.3559 30.776 13.5213C30.7606 13.5427 30.7443 13.5641 30.7289 13.5855C30.7101 13.6121 30.6921 13.6395 30.6732 13.6661C30.6038 13.7663 30.5292 13.8657 30.4633 13.9669C30.3382 14.1597 30.225 14.355 30.1145 14.5504C30.1077 14.5624 30.0999 14.5744 30.0931 14.5864C30.052 14.6601 30.01 14.7329 29.9705 14.8066C29.9028 14.9326 29.8429 15.0577 29.7812 15.1837C29.7657 15.2162 29.746 15.2488 29.7306 15.2814C29.728 15.2856 29.7298 15.2908 29.728 15.2959C29.6998 15.3568 29.6655 15.4168 29.6381 15.4767C29.5961 15.5719 29.5661 15.6644 29.5275 15.7587C29.471 15.8975 29.4127 16.0363 29.3647 16.1751C29.2576 16.4793 29.1659 16.781 29.0999 17.0757C29.0914 17.1134 29.0888 17.1503 29.0811 17.188C29.0211 17.4759 28.9851 17.7578 28.9645 18.0346C28.962 18.0672 28.9525 18.1015 28.9508 18.1332C27.4349 16.8392 26.3707 13.9266 26.3707 10.7089ZM45.0659 14.1777C44.2853 15.9283 42.7934 17.6473 40.8636 19.0175C38.9347 20.3886 36.8199 21.2318 34.9098 21.392C33.1617 21.5394 31.8275 21.0938 31.1488 20.1383C30.9826 19.9044 30.86 19.6431 30.7769 19.3594C30.7538 19.2789 30.7401 19.1949 30.7238 19.1118C30.7109 19.0475 30.6946 18.9858 30.6852 18.9198C30.6732 18.8316 30.6706 18.7399 30.6655 18.649C30.6621 18.5822 30.6552 18.5179 30.6552 18.4494C30.6552 18.3568 30.6638 18.2609 30.6706 18.1657C30.6758 18.0955 30.6784 18.0261 30.6869 17.9541C30.6989 17.8555 30.7178 17.7544 30.7358 17.6542C30.7486 17.583 30.7606 17.5119 30.7769 17.4399C30.8009 17.3328 30.8317 17.2231 30.8626 17.1143C30.8814 17.0475 30.9003 16.9815 30.9226 16.9138C30.962 16.7921 31.0066 16.6687 31.0545 16.5453C31.0742 16.4948 31.094 16.4442 31.1154 16.3928C31.1711 16.2591 31.2302 16.1246 31.2953 15.99C31.3527 15.8684 31.4204 15.745 31.4856 15.6224C31.812 15.0166 32.2234 14.4056 32.7169 13.8118C32.7272 13.7989 32.7375 13.7861 32.7478 13.7732C32.8789 13.6172 33.016 13.4621 33.1565 13.3096C33.1823 13.2822 33.208 13.2539 33.2337 13.2256C33.3656 13.0851 33.5019 12.9463 33.6416 12.8092C33.6887 12.7638 33.7358 12.7175 33.7838 12.6721C33.9089 12.553 34.0366 12.4338 34.1677 12.3173C34.2611 12.2359 34.3562 12.1545 34.4522 12.0748C34.5525 11.99 34.6519 11.9043 34.7555 11.822C34.8961 11.7097 35.0435 11.6018 35.1909 11.493C35.262 11.4407 35.3297 11.385 35.4025 11.3336C35.6742 11.1408 35.9484 10.9617 36.2234 10.792C36.268 10.7646 36.3134 10.7397 36.358 10.7132C37.388 10.0936 38.4591 9.61802 39.5011 9.31725C39.5208 9.31125 39.5397 9.30611 39.5594 9.30097C39.7556 9.24527 39.951 9.19642 40.1447 9.15358C40.1815 9.14501 40.2184 9.13815 40.2544 9.13044C40.436 9.09188 40.6168 9.0576 40.7951 9.03104C40.8396 9.02418 40.8833 9.0199 40.927 9.01476C41.1027 8.99076 41.2784 8.96934 41.4498 8.95734C41.4506 8.95734 41.4523 8.95649 41.4532 8.95649C41.6366 8.94363 41.8174 8.93335 41.9913 8.93335C43.4267 8.93335 44.5226 9.3798 45.1165 10.2153C45.7986 11.169 45.7797 12.5769 45.0659 14.1777Z" fill="#67916B"/>
<path d="M36.8627 35.574C40.0333 33.3623 42.1259 29.6202 42.1336 25.3802C42.1344 25.0314 41.9236 24.7178 41.6014 24.585C41.436 24.5181 41.2587 24.5061 41.0899 24.5421C37.9595 24.5815 35.0238 25.8566 32.8078 28.1446C30.5832 30.4402 29.3501 33.4874 29.3184 36.7343C29.3176 36.7394 29.315 36.7446 29.315 36.7497C29.3141 36.7566 29.3167 36.7634 29.3167 36.7703C29.3167 36.7943 29.3133 36.8165 29.3133 36.8405C29.3133 36.8868 29.327 36.9297 29.3339 36.9742C29.3373 36.9931 29.3381 37.0128 29.3424 37.0316C29.369 37.1413 29.4127 37.2433 29.4795 37.3324C31.1719 41.3111 35.1172 43.7121 39.3263 43.7121C40.7154 43.7121 42.1327 43.4508 43.5072 42.8989C43.8311 42.7687 44.0436 42.455 44.0445 42.1063C44.0453 41.9315 43.9914 41.7652 43.8988 41.6255C42.6272 38.5981 40.0101 36.4052 36.8627 35.574ZM34.0383 29.3365C35.7599 27.5593 37.9853 26.4967 40.3795 26.2911C40.0333 30.3991 37.4206 33.8379 33.8541 35.2595C33.8481 35.2621 33.8412 35.2604 33.8352 35.263C32.9946 35.5954 32.1308 35.8054 31.2576 35.9014C31.2079 35.9065 31.1599 35.9168 31.1102 35.9211C31.0948 35.9228 31.0802 35.9219 31.0648 35.9236C31.2739 33.4309 32.3108 31.1198 34.0383 29.3365ZM31.5198 37.6032C31.9809 37.5509 32.4325 37.4635 32.8763 37.3581C32.9303 37.3453 32.9835 37.3281 33.0374 37.3144C33.4376 37.2133 33.8292 37.0908 34.2123 36.9485C34.2423 36.9374 34.2731 36.9314 34.304 36.9202C37.6039 37.0111 40.5251 38.8131 41.9982 41.6101C37.9073 42.8166 33.5619 41.1337 31.5198 37.6032Z" fill="#67916B"/>
</g>
<defs>
<clipPath>
<rect width="48" height="48" fill="white"/>
</clipPath>
</defs>
</svg>
